<svg xmlns="http://www.w3.org/2000/svg" width="512" height="512" viewBox="0 0 512 512" fill="none">
  <defs>
    <linearGradient id="bg" x1="64" y1="48" x2="448" y2="464" gradientUnits="userSpaceOnUse">
      <stop stop-color="#0F766E" />
      <stop offset="0.55" stop-color="#0D9488" />
      <stop offset="1" stop-color="#0EA5E9" />
    </linearGradient>
    <linearGradient id="card" x1="144" y1="120" x2="366" y2="388" gradientUnits="userSpaceOnUse">
      <stop stop-color="#F8FAFC" />
      <stop offset="1" stop-color="#E2F3F4" />
    </linearGradient>
  </defs>
  <rect width="512" height="512" rx="124" fill="url(#bg)" />
  <circle cx="398" cy="116" r="62" fill="white" fill-opacity="0.09" />
  <circle cx="118" cy="424" r="78" fill="white" fill-opacity="0.08" />
  <rect x="134" y="112" width="244" height="288" rx="42" fill="url(#card)" />
  <rect x="162" y="152" width="188" height="28" rx="14" fill="#0F766E" fill-opacity="0.16" />
  <rect x="162" y="204" width="188" height="20" rx="10" fill="#0F766E" fill-opacity="0.12" />
  <rect x="162" y="242" width="150" height="20" rx="10" fill="#0F766E" fill-opacity="0.12" />
  <rect x="162" y="280" width="172" height="20" rx="10" fill="#0F766E" fill-opacity="0.12" />
  <path d="M256 320C294.66 320 326 288.66 326 250C326 211.34 294.66 180 256 180C217.34 180 186 211.34 186 250C186 288.66 217.34 320 256 320Z" fill="#0F766E" fill-opacity="0.1"/>
  <path d="M256 336C303.496 336 342 297.496 342 250C342 202.504 303.496 164 256 164C208.504 164 170 202.504 170 250C170 297.496 208.504 336 256 336Z" stroke="#0F766E" stroke-width="14"/>
  <path d="M256 206C274.778 206 290 221.222 290 240C290 264.5 256 306 256 306C256 306 222 264.5 222 240C222 221.222 237.222 206 256 206Z" fill="#0F766E"/>
  <circle cx="256" cy="240" r="10" fill="#E6FFFB" />
  <path d="M320 360C320 395.346 291.346 424 256 424C220.654 424 192 395.346 192 360H320Z" fill="#0F766E" fill-opacity="0.12"/>
</svg>
